/* XPM */
static char * hex16x16_xpm[] = {
"16 16 16 1",
" 	c None",
".	c #FFFFFF",
"+	c #BF7F7F",
"@	c #BF3F7F",
"#	c #FFBFBF",
"$	c #7F7F7F",
"%	c #7F3F7F",
"&	c #BFBFBF",
"*	c #3F007F",
"=	c #3F3F7F",
"-	c #7F007F",
";	c #3F003F",
">	c #7F3F3F",
",	c #3F3F3F",
"'	c #7F003F",
")	c #00003F",
"................",
".....++@@++#....",
"...#$@@@@@@+#...",
"...$%@@@@@@@@#..",
"..+%%@@@@@@@@+..",
"..%%%@@@@@@@@@#.",
".&%%%%@@@@@@@@&.",
".&%%%%%@@@@@@%&.",
"..%%%%%%@@@@%%&.",
"&*=$=%$%-------$",
"&*%$;%$;*%-----$",
"&*$$=$$;$%$%$$>$",
"&*$,;$,%$$%;$,'$",
"&*$)*$,$$;%%$%%$",
"&%%;%$,%$%%,%$'$",
".$$$$$$$$$$$$$$&"};
