/* XPM */
static char * hex24x24_xpm[] = {
"24 24 199 2",
"  	c None",
". 	c #FFFFFF",
"+ 	c #EADBDB",
"@ 	c #C6A3B8",
"# 	c #C694AA",
"$ 	c #D494AA",
"% 	c #DB9BB8",
"& 	c #EACDD4",
"* 	c #FFF8F8",
"= 	c #D4B8BF",
"- 	c #A35B86",
"; 	c #B13F7F",
"> 	c #BF3F7F",
", 	c #BF4D86",
"' 	c #DBB1BF",
") 	c #F8F8F8",
"! 	c #F8F1F1",
"~ 	c #9B7F9B",
"{ 	c #7F3F7F",
"] 	c #B83F7F",
"^ 	c #C6638D",
"/ 	c #F1E3E3",
"( 	c #9B638D",
"_ 	c #AA3F7F",
": 	c #D43F7F",
"< 	c #CD3F7F",
"[ 	c #F8E3E3",
"} 	c #A386A3",
"| 	c #F13F7F",
"1 	c #FF3F7F",
"2 	c #C63F7F",
"3 	c #D4CDD4",
"4 	c #863F7F",
"5 	c #DBAABF",
"6 	c #9B7194",
"7 	c #943F7F",
"8 	c #B85486",
"9 	c #7F467F",
"0 	c #E3D4D4",
"a 	c #DBD4D4",
"b 	c #D4D4D4",
"c 	c #9B3F7F",
"d 	c #BF94AA",
"e 	c #A33F7F",
"f 	c #DBDBDB",
"g 	c #8D3F7F",
"h 	c #C6AAC6",
"i 	c #A38DBF",
"j 	c #8D78B8",
"k 	c #542A7F",
"l 	c #6A2A7F",
"m 	c #712A7F",
"n 	c #942A7F",
"o 	c #7F2A7F",
"p 	c #AA6A9B",
"q 	c #CD95BF",
"r 	c #3F007F",
"s 	c #5B3894",
"t 	c #7F7F94",
"u 	c #5C4E7F",
"v 	c #786394",
"w 	c #78718D",
"x 	c #5B3178",
"y 	c #71007F",
"z 	c #7F007F",
"A 	c #6A075C",
"B 	c #3F077F",
"C 	c #948D94",
"D 	c #63636A",
"E 	c #0E003F",
"F 	c #380063",
"G 	c #714794",
"H 	c #7F7F7F",
"I 	c #3F3154",
"J 	c #31003F",
"K 	c #4D006A",
"L 	c #6A0055",
"M 	c #5B318D",
"N 	c #464646",
"O 	c #150046",
"P 	c #715C8D",
"Q 	c #1C1C31",
"R 	c #310054",
"S 	c #780E86",
"T 	c #8D5C94",
"U 	c #78637F",
"V 	c #7F4E7F",
"W 	c #7F0E7F",
"X 	c #944094",
"Y 	c #8D5C8D",
"Z 	c #7F1C78",
"` 	c #8D3194",
" .	c #8D6A8D",
"..	c #63074E",
"+.	c #6A478D",
"@.	c #7F8686",
"#.	c #5C5C6A",
"$.	c #553F71",
"%.	c #6A3F7F",
"&.	c #7F868D",
"*.	c #787878",
"=.	c #000023",
"-.	c #4D0E71",
";.	c #94949B",
">.	c #634663",
",.	c #5B316A",
"'.	c #7F7F86",
").	c #63315C",
"!.	c #782371",
"~.	c #7F6A7F",
"{.	c #8D5C78",
"].	c #6A4E63",
"^.	c #310715",
"/.	c #C6C6C6",
"(.	c #7F7194",
"_.	c #868686",
":.	c #232338",
"<.	c #2A1546",
"[.	c #3F1C5B",
"}.	c #949B9B",
"|.	c #5C5C63",
"1.	c #15002A",
"2.	c #7F5C8D",
"3.	c #380E4D",
"4.	c #8D7F8D",
"5.	c #78787F",
"6.	c #1C071C",
"7.	c #6A0054",
"8.	c #7F787F",
"9.	c #717171",
"0.	c #4D002A",
"a.	c #54003F",
"b.	c #38001C",
"c.	c #86868D",
"d.	c #00002A",
"e.	c #5B317F",
"f.	c #1C0046",
"g.	c #867F86",
"h.	c #869494",
"i.	c #6A6378",
"j.	c #54315B",
"k.	c #3F0746",
"l.	c #31002A",
"m.	c #710071",
"n.	c #8D718D",
"o.	c #7F0771",
"p.	c #630055",
"q.	c #4D2386",
"r.	c #4E4E4E",
"s.	c #07003F",
"t.	c #6A558D",
"u.	c #232331",
"v.	c #2A0054",
"w.	c #867F8D",
"x.	c #6A6A71",
"y.	c #150023",
"z.	c #541554",
"A.	c #716A71",
"B.	c #7F4778",
"C.	c #944E94",
"D.	c #7F5C7F",
"E.	c #9B9B9B",
"F.	c #461C31",
"G.	c #8D6386",
"H.	c #5C004E",
"I.	c #634786",
"J.	c #7F719B",
"K.	c #716A7F",
"L.	c #545463",
"M.	c #2A1563",
"N.	c #5B388D",
"O.	c #867894",
"P.	c #786A7F",
"Q.	c #46464D",
"R.	c #633F7F",
"S.	c #6A5C6A",
"T.	c #783178",
"U.	c #63155B",
"V.	c #6A0E54",
"W.	c #46002A",
"X.	c #715C94",
"Y.	c #000055",
"Z.	c #000031",
"`.	c #000000",
" +	c #070023",
".+	c #2A0046",
"++	c #2A0038",
"@+	c #07001C",
"#+	c #230038",
"$+	c #2A003F",
"%+	c #1C0023",
"&+	c #230023",
"*+	c #2A002A",
"=+	c #070007",
"-+	c #3F002A",
";+	c #0E0007",
">+	c #23001C",
",+	c #310723",
"'+	c #F1F1F1",
". . . . . . . . . . . . . . . . . . . . . . . . ",
". . . . . . . . . + @ # $ % & * . . . . . . . . ",
". . . . . . . = - ; > > > > > , ' ) . . . . . . ",
". . . . . ! ~ { ] > > > > > > > > ^ / . . . . . ",
". . . . ! ( { _ > > > > > > : < > > , [ . . . . ",
". . . . } { { ; > > > > > > | 1 2 > > ^ * . . . ",
". . . 3 { { 4 > > > > > > > 2 : > > > > 5 . . . ",
". . . 6 { { 7 > > > > > > > > > > > > > 8 * . . ",
". . ) 9 { { 4 7 > > > > > > > > > > > > ] 0 . . ",
". . a { { { { { ] > > > > > > > > > > > ; @ . . ",
". . b { { { { { 4 c > > > > > > > > > > _ d . . ",
". . b { { { { { { { > > > > > > > > > > e d . . ",
". . f { { { { { { { { g > > > > > ; ] 4 { h . . ",
". i j k l l l l l l l m n n n n n o o o o p q ) ",
". k r s t t u r v t w x y z z z z z z z z z A b ",
". k r B C D E F G H I J K z z z z z z z z z L b ",
". k r M H N O r P H Q R S T U V W X Y Z `  ...b ",
". k r +.@.#.$.%.&.*.=.-.;.>.,.'.).!.H ~.{.].^./.",
". k r (._.:.<.[.}.|.1.2.H 3.4.5.6.7.8.9.0.a.b./.",
". k r c.9.d.F e.H N f.g.h.i.j.k.l.m.n.*.l.o.p.b ",
". k q._.r.s.r t.H u.v.w.x.y.z.A.B.C.D.E.F.G.H.b ",
". I.J.K.L.M.N.O.P.Q.F R.5.D S.T.H >.U.8.9.V.W.b ",
". X.Y.Z.`. +.+++@+`.#+$+%+`.&+*+*+=+&+-+;+>+,+b ",
". '+b b b b b b b b b b b b b b b b b b b b b ) "};
