/* XPM */
static char * hex64x64_xpm[] = {
"64 64 23 1",
" 	c None",
".	c #FFFFFF",
"+	c #FFBFBF",
"@	c #BFBFBF",
"#	c #BF7F7F",
"$	c #7F3F7F",
"%	c #BF3F7F",
"&	c #BF7FBF",
"*	c #7F7F7F",
"=	c #FF3F7F",
"-	c #3F007F",
";	c #7F007F",
">	c #3F3F7F",
",	c #7F7FBF",
"'	c #7F003F",
")	c #3F3F3F",
"!	c #00003F",
"~	c #3F003F",
"{	c #000000",
"]	c #7F3F3F",
"^	c #3F0000",
"/	c #7FBFBF",
"(	c #00007F",
"................................................................",
"................................................................",
"................................................................",
"...............................+++..............................",
".........................@##$$$$%%%%##&+........................",
"......................+#*$%$%%%%%%%%%%%%#&......................",
"....................+*$$%%%%%%%%%%%%%%%%%%%#....................",
"..................+#$$$%%%%%%%%%%%%%%%%%%%%%#&..................",
".................@$$$$%%%%%%%%%%%%%%%%%%%%%%%%#+................",
"................#$$$$$%%%%%%%%%%%%%%%%%%%%%%%%%#+...............",
"...............*$$$$$%%%%%%%%%%%%%%%%%%%%%%%%%%%%&..............",
"..............*$$$$$%%%%%%%%%%%%%%%%%%%%%%%%%%%%%%&.............",
".............*$$$$$%%%%%%%%%%%%%%%%%%%%==%%%%%%%%%%+............",
"............#$$$$$$%%%%%%%%%%%%%%%%%%%====%%%%%%%%%%+...........",
"...........@$$$$$$$%%%%%%%%%%%%%%%%%%%=====%%%%%%%%%#...........",
"...........*$$$$$$$$%%%%%%%%%%%%%%%%%%=====%%%%%%%%%%#..........",
"..........*$$$$$$$$%%%%%%%%%%%%%%%%%%%%%==%%%%%%%%%%%%+.........",
"..........$$$$$$$$%%%%%%%%%%%%%%%%%%%%%%%%%%%%%%%%%%%%#.........",
".........*$$$$$$$%%%%%%%%%%%%%%%%%%%%%%%%%%%%%%%%%%%%%%+........",
".........$$$$$$$$$%%%%%%%%%%%%%%%%%%%%%%%%%%%%%%%%%%%%%#........",
"........&$$$$$$$$$%%%%%%%%%%%%%%%%%%%%%%%%%%%%%%%%%%%%%$........",
"........*$$$$$$$$$%%%%%%%%%%%%%%%%%%%%%%%%%%%%%%%%%%%%%$@.......",
"........$$$$$$$$$$$$$%%%%%%%%%%%%%%%%%%%%%%%%%%%%%%%%%%%#.......",
".......@$$$$$$$$$$$$$%%%%%%%%%%%%%%%%%%%%%%%%%%%%%%%%%%%#.......",
".......&$$$$$$$$$$$$$$%%%%%%%%%%%%%%%%%%%%%%%%%%%%%%%%%%$.......",
".......*$$$$$$$$$$$$$$%%%%%%%%%%%%%%%%%%%%%%%%%%%%%%%%%$$+......",
".......*$$$$$$$$$$$$$$%%%%%%%%%%%%%%%%%%%%%%%%%%%%%%%%%$$&......",
".......*$$$$$$$$$$$$$$$$$%%%%%%%%%%%%%%%%%%%%%%%%%%%%%%$$&......",
".......*$$$$$$$$$$$$$$$$$$%%%%%%%%%%%%%%%%%%%%%%%%%%%%%$$&......",
".......*$$$$$$$$$$$$$$$$$$$%%%%%%%%%%%%%%%%%%%%%%%%%%%%$$&......",
".......*$$$$$$$$$$$$$$$$$$$%%%%%%%%%%%%%%%%%%%%%%%%%%%%$$&......",
".......*$$$$$$$$$$$$$$$$$$$%%%%%%%%%%%%%%%%%%%%%%%%%%%$$$@......",
".......*$$$$$$$$$$$$$$$$$$$$$$$%%%%%%%%%%%%%%%%%%%%$$$$$$@......",
".......&$$$$$$$$$$$$$$$$$$$$$$$$%%%%%%%%%%%%%%%%%%%$$$$$$.......",
".......@$$$$$$$$$$$$$$$$$$$$$$$$%%%%%%%%%%%%%%$$$%$$$$$$*.......",
"........$$$$$$$$$$$$$$$$$$$$$$$$$%%%%%%$$%%%%$$$$$$$$$$$#.......",
"...----------------------------;;;;;;;;;;;;;;;;;;;;;;;;;;;;;*...",
"...------$$$$$$$$$>--$$$$$$$$$$;;;;;;;;;;;;;;;;;;;;;;;;;;;;;$*..",
"...----->@********>--,*********-;;;;;;;;;;;;;;;;;;;;;;;;;;;;')@.",
"...--------*****!~-----*****)~~--;;;;;;;;;;;;;;;;;;;;;;;;;;;')@.",
"...------->@***>!~~~---&****~~~~~-;;;;;;;;;;;;;;;;;;;;;;;;;;')@.",
"...-------*****)!!!~~--@****{!~~~-;;;;;;;;;;;;;;;;;;;;;;;;;;')@.",
"...-------,****{!!~---$@***){!~~--;;;;;;;;;;;;;;;;;;;;;;;;;;')@.",
"...-------@****{!!----*****){!~-;;;;$****;;;;;;;;$*$;;;$*#$;')@.",
"...-------@***){!!----,****{!!~-;;*@,*****$;;$*&@**];;$@***'~)@.",
"...------$****){!!----@****{!~~-;&@**~~****;$&*****$;$@****~~)@.",
"...------*****)))>>$$$@***){!~--&***~-~****)'''$****~@*$**)~~)@.",
"...------,***@************){!~-*@**$~~~&***)~~;;******~''~{^{)@.",
"...------@****))~~~~)**@**{!!~$@***~~~)@***{~~''*****~~''~~^{)@.",
"...----->@***>{!!~---,****{!!~*****~!~@/,*){{~';****${~~~~~~^)@.",
"...-----*****)!!!!~~~@****{!~-@***$!*@***){{{~';$****{~~''''~)@.",
"...-----,****{!!~--->@***){!~$,**/*@@*$)~~~{~~;;$****{^~';;;~)@.",
"...-----@****{!!----*****){!~****@*))~~~~~~~~';;*****~~~;;;;')@.",
"...-----@***){!!----,****{!!~*****{{~~~~~*~~';;$@****)^~;&$;')@.",
"...----$****)!!!----@****{!!~*****!{~~~~@*~$;;;&*$*@**^~**';~)@.",
"...----,****!!!~----@***){!~-$****){~~~&*~*@***@~;@@@*~~@]';~)@.",
"...----@****{!!----*****){!~--*****)$*@*);@****$~;*****@*~;'~)@.",
"...->,@*******)--,&@*******~--$********~~;*****~;'******~'''~)@.",
"...->*))))))))!--*))))))))~~----))>)))~-;~))$){~~~~$$)){~''~~)@.",
"...------(!!!!!-------~!!{!~-----~{{{~~~~~~~~~{^~~';'~^^^~~'~)@.",
"...@*!!{{{{{{{{{{{!{{{{{{{{{{{{{{{{{{{{{{{{{{{{{{{{{{{{{{{{{{)@.",
"....**********************************************************..",
"................................................................",
"................................................................"};
