/* XPM */
static char * hex72x72_xpm[] = {
"72 72 24 1",
" 	c None",
".	c #FFFFFF",
"+	c #FFBFBF",
"@	c #BFBFBF",
"#	c #BF7F7F",
"$	c #BF7FBF",
"%	c #7F3F7F",
"&	c #BF3F7F",
"*	c #7F7F7F",
"=	c #FF3F7F",
"-	c #FFBFFF",
";	c #7F7FBF",
">	c #3F3F7F",
",	c #3F007F",
"'	c #7F007F",
")	c #3F3F3F",
"!	c #3F0000",
"~	c #00003F",
"{	c #3F003F",
"]	c #000000",
"^	c #7F003F",
"/	c #7F3F3F",
"(	c #7FBFBF",
"_	c #00007F",
"........................................................................",
"........................................................................",
"........................................................................",
"........................................................................",
"..............................+@########$+..............................",
"...........................@##%%%%%&&&&&&&&##+..........................",
"........................+#*%%&&&&&&&&&&&&&&&&&#$........................",
"......................+#%%%&&&&&&&&&&&&&&&&&&&&&#@......................",
".....................#*%%&&&&&&&&&&&&&&&&&&&&&&&&&#@....................",
"...................@*%%%&&&&&&&&&&&&&&&&&&&&&&&&&&&&#...................",
"..................@*%%%%%&&&&&&&&&&&&&&&&&&&&&&&&&&&&#+.................",
".................#%%%%%%&&&&&&&&&&&&&&&&&&&&&&&&&&&&&&#@................",
"................#%%%%%%&&&&&&&&&&&&&&&&&&&&&&&&&&&&&&&&&@...............",
"...............#%%%%%%&&&&&&&&&&&&&&&&&&&&&&&&&&&&&&&&&&&+..............",
"..............#%%%%%%&&&&&&&&&&&&&&&&&&&&&=====&&&&&&&&&&#+.............",
".............@%%%%%%%&&&&&&&&&&&&&&&&&&&&&======&&&&&&&&&&#.............",
".............*%%%%%%%%&&&&&&&&&&&&&&&&&&&&&======&&&&&&&&&&#............",
"............*%%%%%%%%%&&&&&&&&&&&&&&&&&&&&&=====&&&&&&&&&&&&+...........",
"...........@%%%%%%%%%&&&&&&&&&&&&&&&&&&&&&&&====&&&&&&&&&&&&#...........",
"...........*%%%%%%%%%&&&&&&&&&&&&&&&&&&&&&&&&&&&&&&&&&&&&&&&&$..........",
"..........@%%%%%%%%%&&&&&&&&&&&&&&&&&&&&&&&&&&&&&&&&&&&&&&&&&#..........",
"..........*%%%%%%%%%&&&&&&&&&&&&&&&&&&&&&&&&&&&&&&&&&&&&&&&&&&@.........",
".........@%%%%%%%%%%&&&&&&&&&&&&&&&&&&&&&&&&&&&&&&&&&&&&&&&&&&#.........",
".........#%%%%%%%%%%&&&&&&&&&&&&&&&&&&&&&&&&&&&&&&&&&&&&&&&&&&%+........",
".........*%%%%%%%%%%&&&&&&&&&&&&&&&&&&&&&&&&&&&&&&&&&&&&&&&&&&%#........",
".........%%%%%%%%%%%%%%%&&&&&&&&&&&&&&&&&&&&&&&&&&&&&&&&&&&&&&&#........",
"........@%%%%%%%%%%%%%%%&&&&&&&&&&&&&&&&&&&&&&&&&&&&&&&&&&&&&&&*........",
"........#%%%%%%%%%%%%%%%&&&&&&&&&&&&&&&&&&&&&&&&&&&&&&&&&&&&&&&%+.......",
"........*%%%%%%%%%%%%%%%&&&&&&&&&&&&&&&&&&&&&&&&&&&&&&&&&&&&&&%%@.......",
"........*%%%%%%%%%%%%%%%%&&&&&&&&&&&&&&&&&&&&&&&&&&&&&&&&&&&&&%%#.......",
"........*%%%%%%%%%%%%%%%%%&&&&&&&&&&&&&&&&&&&&&&&&&&&&&&&&&&&&%%#.......",
"........*%%%%%%%%%%%%%%%%%%%%&&&&&&&&&&&&&&&&&&&&&&&&&&&&&&&&&%%#.......",
"........*%%%%%%%%%%%%%%%%%%%%%&&&&&&&&&&&&&&&&&&&&&&&&&&&&&&&&%%#.......",
"........*%%%%%%%%%%%%%%%%%%%%%&&&&&&&&&&&&&&&&&&&&&&&&&&&&&&&&%%#.......",
"........*%%%%%%%%%%%%%%%%%%%%%&&&&&&&&&&&&&&&&&&&&&&&&&&&&&&&&%%#.......",
"........*%%%%%%%%%%%%%%%%%%%%%&&&&&&&&&&&&&&&&&&&&&&&&&&&&&&&%%%#.......",
"........*%%%%%%%%%%%%%%%%%%%%%%%%%&&&&&&&&&&&&&&&&&&&&&&&&%%%%%%@.......",
"........*%%%%%%%%%%%%%%%%%%%%%%%%%%%&&&&&&&&&&&&&&&&&&&&&%%%%%%%@.......",
"........@%%%%%%%%%%%%%%%%%%%%%%%%%%%&&&&&&&&&&&&&&&&%%&&%%%%%%%%-.......",
"........@%%%%%%%%%%%%%%%%%%%%%%%%%%%&&&&&&&&&&&&&&&%%%%%%%%%%%%*........",
"...$;;;;;>>>%%%%%%%%%%%%%%%%%%%%%%%%%%%%%%%%%%%%%%%%%%%%%%%%%%%%####-...",
"...*,,,,,,,,,,,,,,,,,,,,,,,,,,,,,,,'''''''''''''''''''''''''''''''''$@..",
"...*,,,,,,;;;;;;;;;;*,,,*;;;;;;;;;*''''''''''''''''''''''''''''''''')*..",
"...*,,,,,,;*********>,,,$*********>,''''''''''''''''''''''''''''''''!*..",
"...*,,,,,,,,******~{,,,,,,******{{{,,,''''''''''''''''''''''''''''''!*..",
"...*,,,,,,,,$****>~{{{,,,,@****>{{{{{,''''''''''''''''''''''''''''''!*..",
"...*,,,,,,,,@****)~~~~{,,,@****{~~{{{{,'''''''''''''''''''''''''''''!*..",
"...*,,,,,,,>@****]~~~{,,,%@****]~~{{,,''''''''''''''''''''''''''''''!*..",
"...*,,,,,,,******]~~{,,,,******]~~{,,'''''%%%'''''''''''''''''''%'''!*..",
"...*,,,,,,,;****)]~~{,,,,;****)]~~{,'''%;@@;***%'''''%*$@*''''$@@*''!*..",
"...*,,,,,,,@****)]~~,,,,,@****)]~{{,'';@**))****''*$@@****^''@;***/']*..",
"...*,,,,,,,@****]~~~,,,,>@****]]~{,,%@(**){,****%'**)%****{'$@****)^]*..",
"...*,,,,,,%*****)>>%%%%%*(****]~~{,'@***%{,{*****{^''%****/*@//**%!{])..",
"...*,,,,,,;***(@*************)]~~{,;@***{{{{@*;**]{^''***(*@%{^^{]!!])..",
"...*,,,,,,@***@*))))))))**@**)]~{{%@***%{{{%@***)]{{'^******]^^^{{!!])..",
"...*,,,,,,@****)]~~{,,,,@*(**~]~{,$****{{~)@@(**]]{{^'*****)!{^{{{{{])..",
"...*,,,,,>@****]~~~~{{{>@****]]~{,@****{~>@****{]]{{^'%****)!{{{^^^^]*..",
"...*,,,,,******]~~~{{{{******]~~{******%;@***>{{!]{{'''****)!{{^'''']*..",
"...*,,,,,;****)]~~{,,,,;****)]~~{****(@@**){{{{{]{{{''%@****]{{^''''!*..",
"...*,,,,,@****)]~~,,,,,@****)]~{,$***(*)]~{,{{{{{{{'''$*****]{{'%'''!*..",
"...*,,,,>@****]~~~,,,,>@****]]~{,$****)]~{{{{)@){^'''%@)****)!{'@%''!*..",
"...*,,,,******]~~~,,,,******]~~{,;****)]]{{{{@*{%*'''@*{@@@*)!{*@{'']*..",
"...*,,,,;****)]~~{,,,,;****)]~~{,*****>]~{{'@*)*@***$@{'$*@@*!{@*^'^]*..",
"...*,,,,@****)]~~,,,,,@****)]~~{,%*****))>*@*){@*****%{'******@*{'^^]*..",
"...*,*;@@*******~,,*;@@*******{,,,%*********){'$*****{'^%******{^'^{]*..",
"...*,;**>>%>>>)>~,,;**>%%%>))){,,,,>>****)){{''%***%]{{{{%***)]{^^{^]*..",
"...*,,____~~]]]]~,,,,,{{{~]]]]{,,,,,{{]]]]{{{{{{{{{]]{{{{^^{]]!{{{{^]*..",
"...;>,___~~~]]]]~~{{,,{{~~]]]]~{{{{{{{~]]]]{{{{{{{{]]]]{{{^{{]]]!{{^]*..",
"....@)]]]]]]]]]]]]]]]]]]]]]]]]]]]]]]]]]]]]]]]]]]]]]]]]]]]]]]]]]]]]]])*..",
".....****************************************************************@..",
"........................................................................",
"........................................................................"};
