/* XPM */
static char * hex85x67_xpm[] = {
"85 67 16 1",
" 	c None",
".	c #FFFFFF",
"+	c #FFAAAA",
"@	c #FFAAFF",
"#	c #AA55AA",
"$	c #AA5555",
"%	c #555555",
"&	c #AAAAAA",
"*	c #FF5555",
"=	c #5555AA",
"-	c #000055",
";	c #550055",
">	c #000000",
",	c #55AAAA",
"'	c #550000",
")	c #AAAAFF",
".....................................................................................",
".....................................................................................",
".....................................................................................",
".....................................................................................",
".........................................++@.........................................",
"...................................+#$$$$$$$$$$$++...................................",
"................................+$$$$$$$$$$$$$$$$$$+.................................",
"..............................+$%$$$$$$$$$$$$$$$$$$$$#...............................",
"............................@$%$$$$$$$$$$$$$$$$$$$$$$$$&.............................",
"...........................&$$$$$$$$$$$$$$$$$$$$$$$$$$$$$@...........................",
"..........................#%$$$$$$$$$$$$$$$$$$$$$$$$$$$$$$+..........................",
".........................$%$$$$$$$$$$$$$$$$$$$$$$$$$$$$$$$$&.........................",
"........................$%$$$$$$$$$$$$$$$$$$$$$$$$$$$$$$$$$$&........................",
".......................$%$$$$$$$$$$$$$$$$$$$$$$*****$$$$$$$$$+.......................",
"......................#%%$$$$$$$$$$$$$$$$$$$$$$******$$$$$$$$$+......................",
".....................&%%%$$$$$$$$$$$$$$$$$$$$$$*******$$$$$$$$$......................",
".....................%%%$$$$$$$$$$$$$$$$$$$$$$$$*****$$$$$$$$$$#.....................",
"....................$%%%$$$$$$$$$$$$$$$$$$$$$$$$*****$$$$$$$$$$$+....................",
"....................%%%$$$$$$$$$$$$$$$$$$$$$$$$$$$$*$$$$$$$$$$$$$....................",
"...................#%%%%$$$$$$$$$$$$$$$$$$$$$$$$$$$$$$$$$$$$$$$$$+...................",
"...................%%%%%%%%$$$$$$$$$$$$$$$$$$$$$$$$$$$$$$$$$$$$$$#...................",
"..................#%%%%%%%%$$$$$$$$$$$$$$$$$$$$$$$$$$$$$$$$$$$$$$$...................",
"..................%%%%%%%%%$$$$$$$$$$$$$$$$$$$$$$$$$$$$$$$$$$$$$$$&..................",
"..................%%%%%%%%$$$$$$$$$$$$$$$$$$$$$$$$$$$$$$$$$$$$$$$$$..................",
".................&%%%%%%%$$$$$$$$$$$$$$$$$$$$$$$$$$$$$$$$$$$$$$$$$$..................",
".................#%%%%%%%$$$$$$$$$$$$$$$$$$$$$$$$$$$$$$$$$$$$$$$$$$..................",
".................#%%%%%%%$$$$$$$$$$$$$$$$$$$$$$$$$$$$$$$$$$$$$$$$$%+.................",
".................%%%%%%%%$$$$$$$$$$$$$$$$$$$$$$$$$$$$$$$$$$$$$$$$$$&.................",
".................%%%%%%%%%$$$$$$$$$$$$$$$$$$$$$$$$$$$$$$$$$$$$$$$$%&.................",
".................%%%%%%%%%$$$$$$$$$$$$$$$$$$$$$$$$$$$$$$$$$$$$$$$$$&.................",
".................%%%%%%%%%$$$$$$$$$$$$$$$$$$$$$$$$$$$$$$$$$$$$$$$$$&.................",
".................%%%%%%%%%%%%$$$$$$$$$$$$$$$$$$$$$$$$$$$$$$$$$$$$$$&.................",
".................%%%%%%%%%%%%%$$$$$$$$$$$$$$$$$$$$$$$$$$$$$$$$$$$%%&.................",
".................=%%%%%%%%%%%%$$$$$$$$$$$$$$$$$$$$$$$$$$$$$$$$$$$%%+.................",
".................&%%%%%%%%%%%%$$$$$$$$$$$$$$$$$$$$$$$$$$$$$$$$$$%%%..................",
".................&%%%%%%%%%%%%$$$$$$$$$$$$$$$$$$$$$$$$$$$$$$$$$$%%%..................",
"..................%%%%%%%%%%%%%%%%$$$$$$$$$$$$$$$$$$$$$$$$$$$$$$%%#..................",
".............---;;;;;;;;;;;;;;;;;;;;;;;;;;;;;;;;;;;;;;;;;;;;;;;;;;;;;;$..............",
".............---;;;%%%%%%%%%%;;%%%%%%%%%%;;;;;;;;;;;;;;;;;;;;;;;;;;;;;%%.............",
".............---;;;&%%%%%%%%%;;#%%%%%%%%%;;;;;;;;;;;;;;;;;;;;;;;;;;;;;;%&............",
".............---;;;;-%%%%%--;;;;;%%%%%%;;;;;;;;;;;;;;;;;;;;;;;;;;;;;;;;%&............",
".............---;;;;;&%%%%-;;;;;;&%%%%-;;;;;;;;;;;;;;;;;;;;;;;;;;;;;;;;%&............",
".............---;;;;%%%%%;----;;;&%%%%>--;;;;;;;;;;;;;;;;;;;;;;;;;;;;;;%&............",
".............---;;;;=%%%%>>--;;;%&%%%%>>-;;;;;;;;;;;;;;;;;;;;;;;;;;;;;;%&............",
".............---;;;;&%%%%>>-;;;;%%%%%->>;;;;;;%=##%;;;;;;;;%$%;;;%##%;;%&............",
".............---;;;;&%%%%>>-;;;;#%%%%>>-;;;;%&&%%%%%%;;%#&&&%%;;%&%%%;;%&............",
".............---;;;%&%%%%>>-;;;;&%%%%>>-;;;&&%%;;%%%%;%&%%%%%%;%&%%%%;;%&............",
".............---;;;=%%%&%%%%%%%%&%,%%>>-;;&&%%;;;%%%%%;;;%%%%%;&%%%%%''%&............",
".............---;;;&%%&&=&&&&&&&%=&%%>>;;=&%%%;;;&&&%%;;;;#%&&%%;;;;>'>>&............",
".............---;;;&%%&%%--;;;;%%&&%>>>;%&%%#;;>%)&=%>>;;;%%%&%';;;;''>>&............",
".............---;;%&%%&%>>--;;;&%&%%>>-;#%%=%;>;&&&%%>>;;;$%%%%>;;;;;;'%&............",
".............---;;=%%%%;>>-----&%%%%>>-;&%%&%>%&,%%%>>>;;;%%%%%>';;;;;;%&............",
".............---;;=%%%%>>--;;;%&%%%%>>;%&%%&%&&%%%;;>>>;;;;=%%%>';;;;;;%&............",
".............---;;&%%%%>>-;;;;%%%%%->>;%%%%&%%%;;;;;>>;;;;#%%%%;';;;;;;%&............",
".............---;;&%%%%>>-;;;;#%%%%>>-;%%%=&>>-;;;;%;;;;;;&%%&%%';;&;;;%&............",
".............---;%&%%%%>>-;;;;&%%%%>>-;%%%%%>>>;;;&%;%;;;&%%&&&%>;%&;;;%&............",
".............---;=%%%%>>--;;;;&%%%%>>-;%%%%%%>-;;&&;#&%%#&;;&&&,';&%;;;%&............",
".............---;&%%=%>>-;;;;=&%%%%>>;;;%%%%%%%%&&;;&%%%%%;;#%&&%&%;;;;%&............",
".............-%&&&%%%%%=;;;=&&%%%%%%%;;;%%%%%%%%%;;;&%%%%;;;%%%%%%';;;'%&............",
".............-%%%%%%%%%%-;;%%%%%%%%%-;;;;;%%%%%;;;;;%%%%>;;;;%%%%>;;;;;%&............",
".............-------->>>-;;;;;;;->>>-;;;;;;;>>>;;;;;;;;>>>';;;;'>>';;;;%&............",
".............&%->>>>>>>>>>>>>>>>>>>>>>>>>>>>>>>>>>>>>>>>>>>>>>>>>>>>>>>%&............",
"..............&%%%%%%%%%%%%%%%%%%%%%%%%%%%%%%%%%%%%%%%%%%%%%%%%%%%%%%%%%.............",
".....................................................................................",
".....................................................................................",
".....................................................................................",
"....................................................................................."};
